<?xml version="1.0" encoding="UTF-8" standalone="no"?>
<!-- Created with Inkscape (http://www.inkscape.org/) -->

<svg
   xmlns:dc="http://purl.org/dc/elements/1.1/"
   xmlns:cc="http://creativecommons.org/ns#"
   xmlns:rdf="http://www.w3.org/1999/02/22-rdf-syntax-ns#"
   xmlns:svg="http://www.w3.org/2000/svg"
   xmlns="http://www.w3.org/2000/svg"
   xmlns:sodipodi="http://sodipodi.sourceforge.net/DTD/sodipodi-0.dtd"
   xmlns:inkscape="http://www.inkscape.org/namespaces/inkscape"
   width="210mm"
   height="297mm"
   viewBox="0 0 744.09448819 1052.3622047"
   id="svg3352"
   version="1.1"
   inkscape:version="0.91 r13725"
   sodipodi:docname="logo_inkscape.svg"
   inkscape:export-filename="/home/lucio/Work/Temp/website/figures/logo_inkscape.png"
   inkscape:export-xdpi="90"
   inkscape:export-ydpi="90">
  <defs
     id="defs3354" />
  <sodipodi:namedview
     id="base"
     pagecolor="#ffffff"
     bordercolor="#666666"
     borderopacity="1.0"
     inkscape:pageopacity="0.0"
     inkscape:pageshadow="2"
     inkscape:zoom="0.35"
     inkscape:cx="330.00034"
     inkscape:cy="418.70979"
     inkscape:document-units="px"
     inkscape:current-layer="layer1"
     showgrid="false"
     inkscape:window-width="1871"
     inkscape:window-height="1056"
     inkscape:window-x="49"
     inkscape:window-y="24"
     inkscape:window-maximized="1" />
  <metadata
     id="metadata3357">
    <rdf:RDF>
      <cc:Work
         rdf:about="">
        <dc:format>image/svg+xml</dc:format>
        <dc:type
           rdf:resource="http://purl.org/dc/dcmitype/StillImage" />
        <dc:title></dc:title>
      </cc:Work>
    </rdf:RDF>
  </metadata>
  <g
     inkscape:label="Layer 1"
     inkscape:groupmode="layer"
     id="layer1">
    <rect
       style="fill:#0000ff;fill-rule:evenodd;stroke:#000000;stroke-width:0.75325924px;stroke-linecap:butt;stroke-linejoin:miter;stroke-opacity:1"
       id="rect3362"
       width="224.29005"
       height="187.18144"
       x="-1405.8375"
       y="-84.903427" />
    <rect
       style="fill:#0000ff;fill-rule:evenodd;stroke:#000000;stroke-width:0.75325924px;stroke-linecap:butt;stroke-linejoin:miter;stroke-opacity:1"
       id="rect3362-3"
       width="224.29005"
       height="187.18144"
       x="-1404.7488"
       y="142.69215" />
    <rect
       style="fill:#0000ff;fill-rule:evenodd;stroke:#000000;stroke-width:0.75325924px;stroke-linecap:butt;stroke-linejoin:miter;stroke-opacity:1"
       id="rect3362-3-6"
       width="224.29005"
       height="187.18144"
       x="-1404.7488"
       y="368.16068" />
    <path
       style="fill:#ffffff"
       id="path3410"
       d="m -1369.7662,222.10717 c 4.8631,6.63096 10.1143,13.04513 14.4112,19.96658 2.9379,5.21368 5.3627,10.60873 7.4086,16.12166 2.4204,6.97892 4.7565,13.98745 6.9695,21.01803 1.5103,5.99962 3.0989,11.97332 4.6493,17.96392 5.0865,11.70332 -17.6756,17.35216 -28.7401,22.68305 -0.6964,0.32811 1.3083,-0.78195 1.8849,-1.2502 2.2187,-1.80222 3.9626,-4.07206 5.757,-6.17405 4.0899,-4.41896 8.5681,-8.55981 12.8111,-12.86929 3.8257,-3.73299 7.9688,-7.20472 11.8852,-10.8661 4.026,-3.94594 8.2176,-7.77657 12.1444,-11.79594 3.2959,-4.0472 6.8908,-7.8946 10.4079,-11.80163 4.8768,-5.35202 10.0548,-10.49303 14.8375,-15.90727 5.904,-6.52458 12.0661,-12.87406 18.0509,-19.34594 6.6762,-7.74876 13.5466,-15.35965 20.656,-22.82114 3.3275,-3.90511 6.7298,-7.75907 10.134,-11.61352 3.6367,-3.97023 7.4466,-7.82359 10.9376,-11.88981 2.6024,-3.15822 5.2385,-6.31573 8.3082,-9.15526 2.5908,-3.02972 5.2948,-5.99031 7.9467,-8.98871 1.5469,-1.78595 3.0592,-3.58985 4.6391,-5.35436 l 35.5447,-13.18017 0,0 c -1.502,1.86561 -3.3178,3.47118 -4.6107,5.45911 -2.7314,2.93654 -5.5107,5.91625 -7.801,9.07275 -2.7177,3.04745 -6.0802,5.64919 -8.576,8.87708 -3.1297,4.31115 -7.1312,8.06131 -10.784,12.03571 -3.5017,3.92195 -7.1332,7.73009 -10.3773,11.82244 -7.1105,7.49341 -14.4498,14.82065 -20.7954,22.82384 -5.9537,6.43527 -11.8062,12.93511 -18.0167,19.19237 -4.5281,5.50738 -9.5408,10.70701 -14.6402,15.82767 -3.2853,4.09937 -7.3528,7.65277 -10.2786,11.96032 -3.8641,4.13247 -8.1052,7.94481 -12.1065,11.97384 -3.8917,3.6731 -7.721,7.35199 -11.9488,10.73484 -4.1882,4.32726 -8.5256,8.51576 -12.8558,12.73827 -10.3363,10.94909 -23.4569,32.00242 -43.7956,24.79561 -3.8749,-2.93739 -3.9972,-7.1487 -4.6888,-11.31506 -1.4657,-5.97411 -3.0061,-11.91676 -4.352,-17.9138 -2.1844,-6.9757 -4.5516,-13.92022 -7.0648,-20.8118 -1.951,-5.33838 -4.2446,-10.57188 -6.9676,-15.65982 -4.109,-6.79676 -9.1097,-13.18489 -14.2157,-19.45246 z"
       inkscape:connector-curvature="0"
       sodipodi:nodetypes="ccccccccccccccccccccccccccccccccccccccccc" />
    <rect
       style="fill:#0000ff"
       id="rect3420"
       width="733.84222"
       height="65.938904"
       x="-1149.8184"
       y="-25.345692"
       ry="0" />
    <rect
       style="fill:#0000ff"
       id="rect3420-7"
       width="733.84222"
       height="65.938904"
       x="-1148.0193"
       y="201.31342"
       ry="0" />
    <rect
       style="fill:#0000ff"
       id="rect3420-7-5"
       width="733.84222"
       height="65.938904"
       x="-1151.8418"
       y="426.65491"
       ry="0" />
    <flowRoot
       xml:space="preserve"
       id="flowRoot3452"
       style="font-style:normal;font-variant:normal;font-weight:normal;font-stretch:normal;font-size:593.75px;line-height:145.00000477%;font-family:'GFS Porson';-inkscape-font-specification:'GFS Porson';letter-spacing:0px;word-spacing:0px;fill:#000000;fill-opacity:1;stroke:none;stroke-width:1px;stroke-linecap:butt;stroke-linejoin:miter;stroke-opacity:1"
       transform="matrix(1.0894543,0,0,1.4757269,-496.671,-59.465558)"><flowRegion
         id="flowRegion3454"><rect
           id="rect3456"
           width="2602.8572"
           height="931.42859"
           x="128.57143"
           y="-270.49493"
           style="font-style:normal;font-variant:normal;font-weight:normal;font-stretch:normal;font-size:593.75px;line-height:145.00000477%;font-family:'GFS Porson';-inkscape-font-specification:'GFS Porson'" /></flowRegion><flowPara
         id="flowPara3458"
         style="font-style:normal;font-variant:normal;font-weight:normal;font-stretch:normal;font-size:593.75px;line-height:145.00000477%;font-family:'GFS Porson';-inkscape-font-specification:'GFS Porson';fill:#0000ff">FinnVote</flowPara></flowRoot>  </g>
</svg>
