<?xml version="1.0" encoding="UTF-8" standalone="no"?>
<!-- Created with Inkscape (http://www.inkscape.org/) -->

<svg
   xmlns:dc="http://purl.org/dc/elements/1.1/"
   xmlns:cc="http://creativecommons.org/ns#"
   xmlns:rdf="http://www.w3.org/1999/02/22-rdf-syntax-ns#"
   xmlns:svg="http://www.w3.org/2000/svg"
   xmlns="http://www.w3.org/2000/svg"
   xmlns:sodipodi="http://sodipodi.sourceforge.net/DTD/sodipodi-0.dtd"
   xmlns:inkscape="http://www.inkscape.org/namespaces/inkscape"
   width="210mm"
   height="297mm"
   viewBox="0 0 744.09448819 1052.3622047"
   id="svg3352"
   version="1.1"
   inkscape:version="0.91 r13725"
   sodipodi:docname="logo_ver2.svg"
   inkscape:export-filename="/home/lucio/Work/Temp/website/figures/logo_inkscape.png"
   inkscape:export-xdpi="90"
   inkscape:export-ydpi="90">
  <defs
     id="defs3354" />
  <sodipodi:namedview
     id="base"
     pagecolor="#ffffff"
     bordercolor="#666666"
     borderopacity="1.0"
     inkscape:pageopacity="0.0"
     inkscape:pageshadow="2"
     inkscape:zoom="0.35"
     inkscape:cx="188.09595"
     inkscape:cy="506.67625"
     inkscape:document-units="px"
     inkscape:current-layer="layer1"
     showgrid="false"
     inkscape:window-width="1551"
     inkscape:window-height="1176"
     inkscape:window-x="49"
     inkscape:window-y="24"
     inkscape:window-maximized="1" />
  <metadata
     id="metadata3357">
    <rdf:RDF>
      <cc:Work
         rdf:about="">
        <dc:format>image/svg+xml</dc:format>
        <dc:type
           rdf:resource="http://purl.org/dc/dcmitype/StillImage" />
        <dc:title></dc:title>
      </cc:Work>
    </rdf:RDF>
  </metadata>
  <g
     inkscape:label="Layer 1"
     inkscape:groupmode="layer"
     id="layer1">
    <rect
       style="fill:#0070c0;fill-rule:evenodd;stroke:#000000;stroke-width:0.48119336px;stroke-linecap:butt;stroke-linejoin:miter;stroke-opacity:1;fill-opacity:1"
       id="rect3362"
       width="129.05219"
       height="132.75708"
       x="-1151.6635"
       y="89.470276" />
    <rect
       style="fill:#0070c0;fill-rule:evenodd;stroke:#000000;stroke-width:0.48119336px;stroke-linecap:butt;stroke-linejoin:miter;stroke-opacity:1;fill-opacity:1"
       id="rect3362-3"
       width="129.05219"
       height="132.75708"
       x="-1151.037"
       y="250.89076" />
    <rect
       style="fill:#0070c0;fill-rule:evenodd;stroke:#000000;stroke-width:0.48119336px;stroke-linecap:butt;stroke-linejoin:miter;stroke-opacity:1;fill-opacity:1"
       id="rect3362-3-6"
       width="129.05219"
       height="132.75708"
       x="-1151.037"
       y="410.80267" />
    <path
       style="fill:#ffffff"
       id="path3410"
       d="m -1130.9086,307.2153 c 2.7981,4.70295 5.8195,9.25216 8.2919,14.16114 1.6904,3.69777 3.0856,7.52416 4.2628,11.43418 1.3926,4.94975 2.7368,9.92048 4.0101,14.90687 0.869,4.25518 1.783,8.49199 2.6751,12.74079 2.9267,8.30049 -10.1702,12.30688 -16.5365,16.08778 -0.4007,0.23271 0.7528,-0.55459 1.0845,-0.8867 1.2766,-1.2782 2.28,-2.88807 3.3124,-4.37889 2.3533,-3.13412 4.9301,-6.07098 7.3713,-9.12746 2.2013,-2.64758 4.5852,-5.10989 6.8386,-7.7067 2.3164,-2.79862 4.7282,-5.51546 6.9876,-8.36617 1.8964,-2.87046 3.9648,-5.59919 5.9885,-8.37023 2.806,-3.79588 5.7854,-7.4421 8.5373,-11.28212 3.3969,-4.6275 6.9426,-9.13082 10.3861,-13.72097 3.8414,-5.49574 7.7944,-10.89371 11.885,-16.18572 1.9146,-2.76966 3.8723,-5.50306 5.831,-8.2368 2.0924,-2.81585 4.2846,-5.54882 6.2932,-8.43276 1.4975,-2.23994 3.0142,-4.47938 4.7805,-6.49329 1.4906,-2.14882 3.0464,-4.24859 4.5723,-6.37519 0.8901,-1.26667 1.7602,-2.54607 2.6693,-3.79753 l 20.4516,-9.34794 0,0 c -0.8641,1.32316 -1.9089,2.4619 -2.6528,3.87182 -1.5716,2.08273 -3.1708,4.19606 -4.4886,6.43479 -1.5637,2.16139 -3.4984,4.00664 -4.9344,6.296 -1.8008,3.05765 -4.1032,5.71743 -6.2049,8.53625 -2.0149,2.7816 -4.1044,5.4825 -5.9709,8.38496 -4.0913,5.31466 -8.3142,10.51146 -11.9653,16.18765 -3.4256,4.56416 -6.7931,9.17412 -10.3664,13.61204 -2.6055,3.90608 -5.4897,7.59388 -8.4238,11.22566 -1.8903,2.90746 -4.2306,5.42768 -5.9141,8.48278 -2.2233,2.93092 -4.6635,5.63479 -6.9658,8.49236 -2.2392,2.60512 -4.4426,5.21434 -6.8752,7.61361 -2.4098,3.06907 -4.9054,6.03973 -7.397,9.03452 -5.9472,7.76556 -13.4965,22.69748 -25.199,17.5861 -2.2296,-2.08332 -2.3,-5.07017 -2.6979,-8.02513 -0.8434,-4.23709 -1.7297,-8.45187 -2.5041,-12.70522 -1.2569,-4.94746 -2.6189,-9.87281 -4.0649,-14.76061 -1.1226,-3.78622 -2.4423,-7.49804 -4.009,-11.10662 -2.3643,-4.82056 -5.2416,-9.35129 -8.1795,-13.79652 z"
       inkscape:connector-curvature="0"
       sodipodi:nodetypes="ccccccccccccccccccccccccccccccccccccccccc" />
    <rect
       style="fill:#0070c0;fill-opacity:1"
       id="rect3420"
       width="366.09573"
       height="46.760452"
       x="-998.26642"
       y="131.73576"
       ry="0" />
    <flowRoot
       xml:space="preserve"
       id="flowRoot3452"
       style="font-style:normal;font-variant:normal;font-weight:normal;font-stretch:normal;font-size:593.75px;line-height:145.00000477%;font-family:'GFS Porson';-inkscape-font-specification:'GFS Porson';letter-spacing:0px;word-spacing:0px;fill:#0070c0;fill-opacity:1;stroke:none;stroke-width:1px;stroke-linecap:butt;stroke-linejoin:miter;stroke-opacity:1"
       transform="matrix(1.0894543,0,0,1.1648424,-790.95672,355.33856)"><flowRegion
         id="flowRegion3454"><rect
           id="rect3456"
           width="2602.8572"
           height="931.42859"
           x="128.57143"
           y="-270.49493"
           style="font-style:normal;font-variant:normal;font-weight:normal;font-stretch:normal;font-size:593.75px;line-height:145.00000477%;font-family:'GFS Porson';-inkscape-font-specification:'GFS Porson';fill:#0070c0;fill-opacity:1" /></flowRegion><flowPara
         id="flowPara3458"
         style="font-style:normal;font-variant:normal;font-weight:normal;font-stretch:normal;font-size:443.84558105px;line-height:145.00000477%;font-family:'Trajan Pro';-inkscape-font-specification:'Trajan Pro';fill:#0070c0;fill-opacity:1">FinnVote</flowPara></flowRoot>    <rect
       style="fill:#0070c0;fill-opacity:1"
       id="rect3420-3"
       width="366.09573"
       height="46.760452"
       x="-997.51575"
       y="284.69626"
       ry="0" />
    <rect
       style="fill:#0070c0;fill-opacity:1"
       id="rect3420-3-6"
       width="366.09573"
       height="46.760452"
       x="-995.90332"
       y="445.55341"
       ry="0" />
  </g>
</svg>
