<?xml version="1.0" encoding="UTF-8" standalone="no"?>
<!-- Created with Inkscape (http://www.inkscape.org/) -->

<svg
   xmlns:dc="http://purl.org/dc/elements/1.1/"
   xmlns:cc="http://creativecommons.org/ns#"
   xmlns:rdf="http://www.w3.org/1999/02/22-rdf-syntax-ns#"
   xmlns:svg="http://www.w3.org/2000/svg"
   xmlns="http://www.w3.org/2000/svg"
   xmlns:sodipodi="http://sodipodi.sourceforge.net/DTD/sodipodi-0.dtd"
   xmlns:inkscape="http://www.inkscape.org/namespaces/inkscape"
   width="210mm"
   height="297mm"
   viewBox="0 0 744.09448819 1052.3622047"
   id="svg3352"
   version="1.1"
   inkscape:version="0.91 r13725"
   sodipodi:docname="logo_inkscape.svg"
   inkscape:export-filename="/home/lucio/Work/Temp/website/figures/logo_inkscape.png"
   inkscape:export-xdpi="90"
   inkscape:export-ydpi="90">
  <defs
     id="defs3354" />
  <sodipodi:namedview
     id="base"
     pagecolor="#ffffff"
     bordercolor="#666666"
     borderopacity="1.0"
     inkscape:pageopacity="0.0"
     inkscape:pageshadow="2"
     inkscape:zoom="0.35"
     inkscape:cx="-333.87441"
     inkscape:cy="304.42408"
     inkscape:document-units="px"
     inkscape:current-layer="layer1"
     showgrid="false"
     inkscape:window-width="1871"
     inkscape:window-height="1056"
     inkscape:window-x="49"
     inkscape:window-y="24"
     inkscape:window-maximized="1" />
  <metadata
     id="metadata3357">
    <rdf:RDF>
      <cc:Work
         rdf:about="">
        <dc:format>image/svg+xml</dc:format>
        <dc:type
           rdf:resource="http://purl.org/dc/dcmitype/StillImage" />
        <dc:title />
      </cc:Work>
    </rdf:RDF>
  </metadata>
  <g
     inkscape:label="Layer 1"
     inkscape:groupmode="layer"
     id="layer1">
    <rect
       style="fill:#0000ff;fill-rule:evenodd;stroke:#000000;stroke-width:0.57397056px;stroke-linecap:butt;stroke-linejoin:miter;stroke-opacity:1"
       id="rect3362"
       width="164.96095"
       height="147.76851"
       x="-1345.8981"
       y="52.368755" />
    <rect
       style="fill:#0000ff;fill-rule:evenodd;stroke:#000000;stroke-width:0.57397056px;stroke-linecap:butt;stroke-linejoin:miter;stroke-opacity:1"
       id="rect3362-3"
       width="164.96095"
       height="147.76851"
       x="-1345.0973"
       y="232.04178" />
    <rect
       style="fill:#0000ff;fill-rule:evenodd;stroke:#000000;stroke-width:0.57397056px;stroke-linecap:butt;stroke-linejoin:miter;stroke-opacity:1"
       id="rect3362-3-6"
       width="164.96095"
       height="147.76851"
       x="-1345.0973"
       y="410.03561" />
    <path
       style="fill:#ffffff"
       id="path3410"
       d="m -1319.3682,294.73516 c 3.5767,5.23474 7.4388,10.29835 10.5991,15.76241 2.1608,4.11589 3.9442,8.37495 5.4489,12.72709 1.7801,5.50944 3.4983,11.04223 5.1259,16.59246 1.1108,4.73633 2.2792,9.45221 3.4195,14.18144 3.741,9.23907 -13.0001,13.69848 -21.1378,17.9069 -0.5122,0.25902 0.9623,-0.6173 1.3863,-0.98696 1.6318,-1.42274 2.9144,-3.21464 4.2341,-4.87404 3.0081,-3.4885 6.3018,-6.75745 9.4223,-10.15954 2.8138,-2.94695 5.861,-5.68768 8.7414,-8.57813 2.961,-3.11507 6.0439,-6.13912 8.932,-9.31217 2.424,-3.19503 5.068,-6.23231 7.6548,-9.31669 3.5867,-4.22509 7.3951,-8.28361 10.9127,-12.55783 4.3422,-5.15076 8.8744,-10.16329 13.2761,-15.27246 4.9102,-6.11717 9.9632,-12.12551 15.192,-18.01591 2.4473,-3.08284 4.9497,-6.12532 7.4534,-9.16818 2.6747,-3.13425 5.4768,-6.17625 8.0444,-9.38629 1.9141,-2.49321 3.8528,-4.98588 6.1106,-7.22751 1.9054,-2.3918 3.8941,-4.729 5.8446,-7.09606 1.1377,-1.4099 2.25,-2.83397 3.412,-4.22694 l 26.1423,-10.40495 0,0 c -1.1046,1.47278 -2.4401,2.74028 -3.391,4.30963 -2.0089,2.31823 -4.0531,4.67052 -5.7375,7.1624 -1.9988,2.40578 -4.4719,4.45968 -6.3075,7.00791 -2.3018,3.4034 -5.2449,6.36393 -7.9314,9.50148 -2.5755,3.09613 -5.2464,6.10243 -7.6323,9.33309 -5.2297,5.91561 -10.6276,11.70003 -15.2946,18.01806 -4.3788,5.08025 -8.6833,10.21148 -13.2509,15.15121 -3.3304,4.34776 -7.0171,8.45255 -10.7677,12.495 -2.4162,3.23621 -5.4077,6.04141 -7.5597,9.44196 -2.8419,3.26233 -5.9611,6.27194 -8.904,9.45263 -2.8623,2.89969 -5.6787,5.80395 -8.7882,8.47451 -3.0803,3.41611 -6.2704,6.72267 -9.4552,10.0561 -7.6021,8.64364 -17.252,25.26398 -32.2107,19.57463 -2.85,-2.31889 -2.9399,-5.64347 -3.4486,-8.93256 -1.078,-4.7162 -2.2109,-9.40756 -3.2008,-14.14186 -1.6066,-5.50689 -3.3476,-10.98917 -5.196,-16.42966 -1.4349,-4.21434 -3.1218,-8.34587 -5.1245,-12.36249 -3.0221,-5.36564 -6.7,-10.40868 -10.4554,-15.35655 z"
       inkscape:connector-curvature="0"
       sodipodi:nodetypes="ccccccccccccccccccccccccccccccccccccccccc" />
    <rect
       style="fill:#0000ff"
       id="rect3420"
       width="733.84222"
       height="52.047863"
       x="-1149.8184"
       y="99.413406"
       ry="0" />
    <rect
       style="fill:#0000ff"
       id="rect3420-7"
       width="733.84222"
       height="52.047863"
       x="-1148.0193"
       y="278.3233"
       ry="0" />
    <rect
       style="fill:#0000ff"
       id="rect3420-7-5"
       width="733.84222"
       height="52.047863"
       x="-1151.8418"
       y="456.19315"
       ry="0" />
    <flowRoot
       xml:space="preserve"
       id="flowRoot3452"
       style="font-style:normal;font-variant:normal;font-weight:normal;font-stretch:normal;font-size:593.75px;line-height:145.00000477%;font-family:'GFS Porson';-inkscape-font-specification:'GFS Porson';letter-spacing:0px;word-spacing:0px;fill:#000000;fill-opacity:1;stroke:none;stroke-width:1px;stroke-linecap:butt;stroke-linejoin:miter;stroke-opacity:1"
       transform="matrix(1.0894543,0,0,1.1648424,-496.671,72.481414)"><flowRegion
         id="flowRegion3454"><rect
           id="rect3456"
           width="2602.8572"
           height="931.42859"
           x="128.57143"
           y="-270.49493"
           style="font-style:normal;font-variant:normal;font-weight:normal;font-stretch:normal;font-size:593.75px;line-height:145.00000477%;font-family:'GFS Porson';-inkscape-font-specification:'GFS Porson'" /></flowRegion><flowPara
         id="flowPara3458"
         style="font-style:normal;font-variant:normal;font-weight:normal;font-stretch:normal;font-size:593.75px;line-height:145.00000477%;font-family:'GFS Porson';-inkscape-font-specification:'GFS Porson';fill:#0000ff">FinnVote</flowPara></flowRoot>  </g>
</svg>
